<mxfile host="app.diagrams.net" agent="Mozilla/5.0 (Windows NT 10.0; Win64; x64) AppleWebKit/537.36 (KHTML, like Gecko) Chrome/133.0.0.0 Safari/537.36" version="26.0.16">
  <diagram name="Page-1" id="Wvxps_o1kooxw1gtrpbJ">
    <mxGraphModel dx="346" dy="579" grid="1" gridSize="10" guides="1" tooltips="1" connect="1" arrows="1" fold="1" page="1" pageScale="1" pageWidth="827" pageHeight="1169" math="0" shadow="0">
      <root>
        <mxCell id="0" />
        <mxCell id="1" parent="0" />
        <mxCell id="rqkbrw1KQ7xd3KIygzdR-75" value="" style="group" vertex="1" connectable="0" parent="1">
          <mxGeometry x="1215" y="55" width="400" height="335" as="geometry" />
        </mxCell>
        <mxCell id="rqkbrw1KQ7xd3KIygzdR-76" style="edgeStyle=orthogonalEdgeStyle;rounded=0;orthogonalLoop=1;jettySize=auto;html=1;" edge="1" parent="rqkbrw1KQ7xd3KIygzdR-75" source="rqkbrw1KQ7xd3KIygzdR-77" target="rqkbrw1KQ7xd3KIygzdR-88">
          <mxGeometry relative="1" as="geometry" />
        </mxCell>
        <mxCell id="rqkbrw1KQ7xd3KIygzdR-77" value="&lt;b&gt;&lt;font style=&quot;font-size: 14px;&quot;&gt;Data Ingestion Layer&lt;/font&gt;&lt;/b&gt;&lt;div&gt;&lt;b&gt;(IoT sensors System)&lt;/b&gt;&lt;/div&gt;" style="rounded=1;whiteSpace=wrap;html=1;spacingTop=-3;" vertex="1" parent="rqkbrw1KQ7xd3KIygzdR-75">
          <mxGeometry x="15" width="150" height="60" as="geometry" />
        </mxCell>
        <mxCell id="rqkbrw1KQ7xd3KIygzdR-78" style="edgeStyle=orthogonalEdgeStyle;rounded=0;orthogonalLoop=1;jettySize=auto;html=1;" edge="1" parent="rqkbrw1KQ7xd3KIygzdR-75" source="rqkbrw1KQ7xd3KIygzdR-79" target="rqkbrw1KQ7xd3KIygzdR-81">
          <mxGeometry relative="1" as="geometry" />
        </mxCell>
        <mxCell id="rqkbrw1KQ7xd3KIygzdR-79" value="&lt;b&gt;&lt;font style=&quot;font-size: 14px;&quot;&gt;Processing&amp;nbsp;&lt;/font&gt;&lt;/b&gt;&lt;b style=&quot;background-color: transparent; color: light-dark(rgb(0, 0, 0), rgb(255, 255, 255));&quot;&gt;&lt;font style=&quot;font-size: 14px;&quot;&gt;&amp;amp;&amp;nbsp;&lt;/font&gt;&lt;/b&gt;&lt;div&gt;&lt;b&gt;&lt;font style=&quot;font-size: 14px;&quot;&gt;Analysis Layer&lt;/font&gt;&lt;/b&gt;&lt;/div&gt;" style="rounded=1;whiteSpace=wrap;html=1;" vertex="1" parent="rqkbrw1KQ7xd3KIygzdR-75">
          <mxGeometry x="20" y="185" width="140" height="50" as="geometry" />
        </mxCell>
        <mxCell id="rqkbrw1KQ7xd3KIygzdR-80" style="edgeStyle=orthogonalEdgeStyle;rounded=0;orthogonalLoop=1;jettySize=auto;html=1;entryX=0;entryY=0.5;entryDx=0;entryDy=0;" edge="1" parent="rqkbrw1KQ7xd3KIygzdR-75" source="rqkbrw1KQ7xd3KIygzdR-81" target="rqkbrw1KQ7xd3KIygzdR-83">
          <mxGeometry relative="1" as="geometry" />
        </mxCell>
        <mxCell id="rqkbrw1KQ7xd3KIygzdR-81" value="&lt;div style=&quot;line-height: 130%;&quot;&gt;&lt;b&gt;&lt;font style=&quot;font-size: 15px; line-height: 130%;&quot;&gt;Predictive ML Model&amp;nbsp;&lt;/font&gt;&lt;/b&gt;&lt;div&gt;&lt;b&gt;- for Emission prediction&lt;/b&gt;&lt;/div&gt;&lt;div&gt;&lt;b&gt;(Linear Regression &amp;amp; Lasso)&lt;/b&gt;&lt;/div&gt;&lt;/div&gt;" style="rounded=1;whiteSpace=wrap;html=1;verticalAlign=middle;spacingTop=2;spacing=6;" vertex="1" parent="rqkbrw1KQ7xd3KIygzdR-75">
          <mxGeometry y="265" width="180" height="70" as="geometry" />
        </mxCell>
        <mxCell id="rqkbrw1KQ7xd3KIygzdR-82" style="edgeStyle=orthogonalEdgeStyle;rounded=0;orthogonalLoop=1;jettySize=auto;html=1;entryX=0.5;entryY=0;entryDx=0;entryDy=0;" edge="1" parent="rqkbrw1KQ7xd3KIygzdR-75" source="rqkbrw1KQ7xd3KIygzdR-83" target="rqkbrw1KQ7xd3KIygzdR-85">
          <mxGeometry relative="1" as="geometry" />
        </mxCell>
        <mxCell id="rqkbrw1KQ7xd3KIygzdR-83" value="&lt;div style=&quot;line-height: 130%;&quot;&gt;&lt;b&gt;&lt;font style=&quot;font-size: 14px; line-height: 110%;&quot;&gt;AI-Powered Suggestion &amp;amp; Alert System&lt;/font&gt;&lt;/b&gt;&lt;div&gt;&lt;b style=&quot;line-height: 170%;&quot;&gt;(Langchain + OpenAI)&lt;/b&gt;&lt;/div&gt;&lt;/div&gt;" style="rounded=1;whiteSpace=wrap;html=1;" vertex="1" parent="rqkbrw1KQ7xd3KIygzdR-75">
          <mxGeometry x="230" width="170" height="70" as="geometry" />
        </mxCell>
        <mxCell id="rqkbrw1KQ7xd3KIygzdR-84" style="edgeStyle=orthogonalEdgeStyle;rounded=0;orthogonalLoop=1;jettySize=auto;html=1;entryX=0.5;entryY=0;entryDx=0;entryDy=0;" edge="1" parent="rqkbrw1KQ7xd3KIygzdR-75" source="rqkbrw1KQ7xd3KIygzdR-85" target="rqkbrw1KQ7xd3KIygzdR-86">
          <mxGeometry relative="1" as="geometry" />
        </mxCell>
        <mxCell id="rqkbrw1KQ7xd3KIygzdR-85" value="&lt;b&gt;&lt;font style=&quot;font-size: 14px;&quot;&gt;Web-Based Dashboard&lt;/font&gt;&amp;nbsp;&lt;/b&gt;&lt;div&gt;&lt;b&gt;(NextJs)&lt;/b&gt;&lt;/div&gt;" style="rounded=1;whiteSpace=wrap;html=1;" vertex="1" parent="rqkbrw1KQ7xd3KIygzdR-75">
          <mxGeometry x="235" y="135" width="160" height="60" as="geometry" />
        </mxCell>
        <mxCell id="rqkbrw1KQ7xd3KIygzdR-86" value="&lt;b&gt;&lt;font style=&quot;font-size: 14px;&quot;&gt;Deployment &amp;amp; Infrastructure&lt;/font&gt;&lt;/b&gt;" style="rounded=1;whiteSpace=wrap;html=1;" vertex="1" parent="rqkbrw1KQ7xd3KIygzdR-75">
          <mxGeometry x="245" y="255" width="140" height="60" as="geometry" />
        </mxCell>
        <mxCell id="rqkbrw1KQ7xd3KIygzdR-87" style="edgeStyle=orthogonalEdgeStyle;rounded=0;orthogonalLoop=1;jettySize=auto;html=1;entryX=0.5;entryY=0;entryDx=0;entryDy=0;" edge="1" parent="rqkbrw1KQ7xd3KIygzdR-75" source="rqkbrw1KQ7xd3KIygzdR-88" target="rqkbrw1KQ7xd3KIygzdR-79">
          <mxGeometry relative="1" as="geometry" />
        </mxCell>
        <mxCell id="rqkbrw1KQ7xd3KIygzdR-88" value="&lt;b&gt;&lt;font style=&quot;font-size: 15px;&quot;&gt;Database&lt;/font&gt;&lt;/b&gt;" style="shape=datastore;whiteSpace=wrap;html=1;" vertex="1" parent="rqkbrw1KQ7xd3KIygzdR-75">
          <mxGeometry x="50" y="95" width="80" height="60" as="geometry" />
        </mxCell>
      </root>
    </mxGraphModel>
  </diagram>
</mxfile>
